<?xml version="1.0" encoding="UTF-8"?>
<svg width="26px" height="29px" viewBox="0 0 26 29" version="1.1" xmlns="http://www.w3.org/2000/svg" xmlns:xlink="http://www.w3.org/1999/xlink">
    <!-- Generator: Sketch 48.2 (47327) - http://www.bohemiancoding.com/sketch -->
    <title>Combined Shape</title>
    <desc>Created with Sketch.</desc>
    <defs></defs>
    <g id="Artboard" stroke="none" stroke-width="1" fill="none" fill-rule="evenodd" transform="translate(-211.000000, -32.000000)">
        <path d="M213,52 L213,59 L220,59 L220,52 L213,52 Z M211,50 L222,50 L222,61 L211,61 L211,50 Z M231,49 C234.313708,49 237,51.6862915 237,55 C237,58.3137085 234.313708,61 231,61 C227.686292,61 225,58.3137085 225,55 C225,51.6862915 227.686292,49 231,49 Z M231,51 C228.790861,51 227,52.790861 227,55 C227,57.209139 228.790861,59 231,59 C233.209139,59 235,57.209139 235,55 C235,52.790861 233.209139,51 231,51 Z M223,32 L230,46 L216,46 L223,32 Z M219.236068,44 L226.763932,44 L223,36.472136 L219.236068,44 Z" id="Combined-Shape" fill="#FFFFFF" fill-rule="nonzero"></path>
    </g>
</svg>