{
    "accessors" : [
        {
            "bufferView" : 0, 
            "componentType" : 5123, 
            "count" : 432, 
            "max" : [
                287
            ], 
            "min" : [
                0
            ], 
            "type" : "SCALAR"
        }, 
        {
            "bufferView" : 1, 
            "componentType" : 5126, 
            "count" : 288, 
            "max" : [
                2.9668352603912354, 
                1.0, 
                2.381056785583496
            ], 
            "min" : [
                -2.9668352603912354, 
                -1.0, 
                -2.6582279205322266
            ], 
            "type" : "VEC3"
        }, 
        {
            "bufferView" : 2, 
            "componentType" : 5126, 
            "count" : 288, 
            "max" : [
                0.9315702319145203, 
                0.983141303062439, 
                0.7882105112075806
            ], 
            "min" : [
                -0.9315702319145203, 
                -0.983141303062439, 
                -0.8396702408790588
            ], 
            "type" : "VEC3"
        }
    ], 
    "asset" : {
        "generator" : "Khronos Blender glTF 2.0 exporter", 
        "version" : "2.0"
    }, 
    "bufferViews" : [
        {
            "buffer" : 0, 
            "byteLength" : 864, 
            "byteOffset" : 0, 
            "target" : 34963
        }, 
        {
            "buffer" : 0, 
            "byteLength" : 3456, 
            "byteOffset" : 864, 
            "target" : 34962
        }, 
        {
            "buffer" : 0, 
            "byteLength" : 3456, 
            "byteOffset" : 4320, 
            "target" : 34962
        }
    ], 
    "buffers" : [
        {
            "byteLength" : 7776, 
            "uri" : "heart.bin"
        }
    ], 
    "meshes" : [
        {
            "name" : "Cube.002", 
            "primitives" : [
                {
                    "attributes" : {
                        "NORMAL" : 2, 
                        "POSITION" : 1
                    }, 
                    "indices" : 0
                }
            ]
        }
    ], 
    "nodes" : [
        {
            "mesh" : 0, 
            "name" : "Heart", 
            "rotation" : [
                0.7071068286895752, 
                0.0, 
                -0.0, 
                0.7071068286895752
            ]
        }
    ], 
    "scene" : 0, 
    "scenes" : [
        {
            "name" : "Scene", 
            "nodes" : [
                0
            ]
        }
    ]
}
