{
    "accessors" : [
        {
            "bufferView" : 0, 
            "componentType" : 5121, 
            "count" : 36, 
            "max" : [
                35
            ], 
            "min" : [
                0
            ], 
            "type" : "SCALAR"
        }, 
        {
            "bufferView" : 1, 
            "componentType" : 5126, 
            "count" : 36, 
            "max" : [
                7.0, 
                0.5672788619995117, 
                7.0
            ], 
            "min" : [
                -7.0, 
                0.0, 
                -7.0
            ], 
            "type" : "VEC3"
        }, 
        {
            "bufferView" : 2, 
            "componentType" : 5126, 
            "count" : 36, 
            "max" : [
                0.7090986967086792, 
                0.7051092982292175, 
                0.7090986967086792
            ], 
            "min" : [
                -0.7090986967086792, 
                0.7051092982292175, 
                -0.7090986967086792
            ], 
            "type" : "VEC3"
        }
    ], 
    "asset" : {
        "generator" : "Khronos Blender glTF 2.0 exporter", 
        "version" : "2.0"
    }, 
    "bufferViews" : [
        {
            "buffer" : 0, 
            "byteLength" : 36, 
            "byteOffset" : 0, 
            "target" : 34963
        }, 
        {
            "buffer" : 0, 
            "byteLength" : 432, 
            "byteOffset" : 36, 
            "target" : 34962
        }, 
        {
            "buffer" : 0, 
            "byteLength" : 432, 
            "byteOffset" : 468, 
            "target" : 34962
        }
    ], 
    "buffers" : [
        {
            "byteLength" : 900, 
            "uri" : "spinner.bin"
        }
    ], 
    "meshes" : [
        {
            "name" : "Plane", 
            "primitives" : [
                {
                    "attributes" : {
                        "NORMAL" : 2, 
                        "POSITION" : 1
                    }, 
                    "indices" : 0
                }
            ]
        }
    ], 
    "nodes" : [
        {
            "name" : "Empty", 
            "rotation" : [
                0.0, 
                0.2588190734386444, 
                -0.0, 
                0.965925931930542
            ]
        }, 
        {
            "mesh" : 0, 
            "name" : "Plane"
        }
    ], 
    "scene" : 0, 
    "scenes" : [
        {
            "name" : "Scene", 
            "nodes" : [
                0, 
                1
            ]
        }
    ]
}
